PathFileType	4	(X/Y/Z)	C:\Users\Basilio\Documents\Thesis Gigler\squatting_fais\c3dfiles\073\SLS_back_pre4\markers_experimental.trc
DataRate	CameraRate	NumFrames	NumMarkers	Units	OrigDataRate	OrigDataStartFrame	OrigNumFrames
200.000000	200.000000	4	61	mm	200.000000	0	1341
Frame#	Time	FHD			LBHD			RBHD			C7			T10			CLAV			LSHO			LUUPA			LMUPA			LDUPA			LLEP			LMEP			LRAD			LUL			LRFIN			RSHO			RUPA1			RMUPA			RDUPA			RLEP			RMEP			RUL			RUFIN			LASI			RASI			USACR			LSACR			RSACR			LTHI1			LTHI2			LTHI3			LTHI4			LLFC			LTIB1			LTIB2			LTIB3			LTIB4			LLMAL			LMMAL			LHEE			LMT1			LMT2			LMT5			RTHI			RTHI2			RTHI3			RTHI4			RLFC			RMFC			RTIB1			RTIB2			RTIB3			RTIB4			RLMAL			RMMAL			RHEE			RMT1			RMT2			RMT5			LMFC			RRAD			
		X1	Y1	Z1	X2	Y2	Z2	X3	Y3	Z3	X4	Y4	Z4	X5	Y5	Z5	X6	Y6	Z6	X7	Y7	Z7	X8	Y8	Z8	X9	Y9	Z9	X10	Y10	Z10	X11	Y11	Z11	X12	Y12	Z12	X13	Y13	Z13	X14	Y14	Z14	X15	Y15	Z15	X16	Y16	Z16	X17	Y17	Z17	X18	Y18	Z18	X19	Y19	Z19	X20	Y20	Z20	X21	Y21	Z21	X22	Y22	Z22	X23	Y23	Z23	X24	Y24	Z24	X25	Y25	Z25	X26	Y26	Z26	X27	Y27	Z27	X28	Y28	Z28	X29	Y29	Z29	X30	Y30	Z30	X31	Y31	Z31	X32	Y32	Z32	X33	Y33	Z33	X34	Y34	Z34	X35	Y35	Z35	X36	Y36	Z36	X37	Y37	Z37	X38	Y38	Z38	X39	Y39	Z39	X40	Y40	Z40	X41	Y41	Z41	X42	Y42	Z42	X43	Y43	Z43	X44	Y44	Z44	X45	Y45	Z45	X46	Y46	Z46	X47	Y47	Z47	X48	Y48	Z48	X49	Y49	Z49	X50	Y50	Z50	X51	Y51	Z51	X52	Y52	Z52	X53	Y53	Z53	X54	Y54	Z54	X55	Y55	Z55	X56	Y56	Z56	X57	Y57	Z57	X58	Y58	Z58	X59	Y59	Z59	X60	Y60	Z60	X61	Y61	Z61	

1	0	-166.4369659423828	1681.98583984375	-758.7611083984376	-300.7493286132813	1652.95068359375	-782.8582763671877	-323.5616149902344	1634.203979492188	-649.2247314453126	-357.6002807617188	1532.40625	-711.8660278320314	-414.1011352539064	1199.005126953125	-727.6749267578126	-235.1989746093751	1446.957397460938	-716.1614990234376	-271.5081787109376	1499.405517578125	-856.3323974609377	-189.976303100586	1426.085327148438	-950.4047851562502	-149.3678894042969	1447.372680664063	-928.893737792969	-126.8329315185547	1400.9501953125	-961.8965454101565	-21.97409248352051	1379.264526367188	-965.6392211914065	-24.99765205383301	1322.112548828125	-923.9970703125002	232.8961639404297	1411.946655273438	-844.6810302734377	239.4332122802735	1409.986083984375	-918.9516601562502	315.6910095214844	1421.740112304688	-834.7139282226565	-248.2543640136719	1484.021850585938	-570.1303710937501	-156.9513092041016	1375.361572265625	-476.0481872558595	-117.3746871948242	1398.591064453125	-489.9699707031251	-93.9282913208008	1347.056274414063	-470.5861816406251	-2.187192678451539	1330.109985351563	-470.7707824707032	-5.225485801696778	1279.559326171875	-537.2168579101564	256.0422058105469	1384.127197265625	-516.9061279296876	336.3953247070313	1406.918701171875	-594.3576660156251	-261.7260131835938	1028.35546875	-860.5518188476565	-252.0575103759766	1025.654174804688	-610.8875732421876	-437.1583557128907	1097.948608398438	-729.0819702148439	-449.637908935547	1069.47119140625	-757.3588867187501	-453.9351196289064	1067.868286132813	-700.9820556640626	-256.7445068359376	704.6248168945314	-904.0712890625002	-211.2570953369141	634.8186645507814	-885.2280883789065	-171.5602569580078	644.6473388671876	-857.768493652344	-234.4937744140626	579.6387329101564	-876.386657714844	-241.9921417236329	534.0164184570314	-874.7927246093752	-385.8799133300782	413.686492919922	-824.8948974609377	-444.734100341797	453.4232788085939	-875.3420410156252	-437.0108337402345	415.0233764648439	-856.1404418945315	-509.7298278808595	388.0842285156251	-820.789001464844	-641.7473754882814	406.6121520996095	-846.2475585937502	-612.5709838867189	404.0941467285157	-761.6875000000001	-683.4897460937501	457.9414672851564	-802.8821411132815	-637.0466918945314	240.3079071044922	-761.5649414062501	-641.0692138671876	236.4093170166016	-799.2094726562502	-674.5583496093751	263.7752075195313	-850.4351196289065	-349.9967346191407	797.1961669921877	-553.6491088867189	-315.1346740722657	741.1273803710939	-556.8120727539064	-281.6204528808594	742.3791503906251	-557.4315185546876	-341.0673828125001	666.2669677734376	-582.3419799804689	-325.6758422851563	515.4320068359376	-608.2767333984376	-314.8283996582032	513.0208740234376	-738.8046875000001	-284.9978942871094	358.2306213378907	-707.8704223632814	-313.7824401855469	271.8527526855469	-648.4491577148439	-287.9431762695313	273.0452270507813	-689.6763916015626	-307.0093078613282	231.8755035400391	-726.5703735351564	-361.2966003417969	99.0531921386719	-686.8779296875001	-354.7256774902344	128.7836456298828	-770.489196777344	-431.1263122558595	81.6805877685547	-743.9451904296876	-206.6549835205079	55.38455200195314	-760.0061645507814	-206.2485504150391	50.90386199951173	-719.6302490234376	-248.6137390136719	34.19205856323243	-670.1546630859376	nan	nan	nan	nan	nan	nan	
2	0.005	-166.3670196533203	1681.9794921875	-758.7587280273439	-300.6490173339844	1652.968017578125	-782.8437500000002	-323.4414978027344	1634.176025390625	-649.2603149414064	-357.4940185546876	1532.41943359375	-711.8770141601564	-414.0572204589845	1199.072631835938	-727.7244873046876	-235.159896850586	1446.940185546875	-716.1412963867189	-271.3864135742188	1499.396240234375	-856.3465576171877	-189.8326110839844	1426.099731445313	-950.3773193359377	-149.2170104980469	1447.35595703125	-928.864440917969	-126.7176742553711	1400.976440429688	-961.9505615234377	-21.92998695373536	1379.230834960938	-965.6162719726565	-24.90710258483887	1322.0595703125	-923.9888305664065	233.0160827636719	1411.85986328125	-844.6970825195315	239.5518035888672	1409.884643554688	-918.9315185546877	315.2768554687501	1421.615966796875	-834.3634033203127	-248.1773834228516	1484.0078125	-570.0885620117189	-156.8842010498047	1375.35205078125	-476.043914794922	-117.3044738769532	1398.619262695313	-489.9017333984376	-93.88240051269533	1347.002563476563	-470.5250244140626	-2.139112949371338	1330.072021484375	-470.7035217285157	-5.167798519134522	1279.52685546875	-537.2335205078126	256.1010131835938	1384.0478515625	-516.8944702148439	336.4409179687501	1406.79345703125	-594.3331298828126	-261.7252197265626	1028.251220703125	-860.5476684570315	-251.6918487548829	1025.71533203125	-610.0567626953126	-437.1665954589845	1097.9638671875	-729.1671752929689	-449.6053771972657	1069.464477539063	-757.4174804687501	-453.9256286621095	1067.894165039063	-701.0044555664064	-256.8759155273438	704.5935058593751	-904.1148071289065	-211.3207092285157	634.7941284179689	-885.255554199219	-171.632553100586	644.6251831054689	-857.761901855469	-234.5171966552735	579.6117553710939	-876.4367675781252	-242.0757141113282	534.0093994140626	-874.7984619140627	-385.9631652832032	413.6806945800782	-824.8901977539065	-444.8556213378907	453.4707031250001	-875.3833618164065	-437.1224975585939	415.0313110351564	-856.2418212890627	-509.836639404297	388.154022216797	-820.848815917969	-641.8692626953126	406.6594848632814	-846.2731933593752	-612.6803588867189	404.1369018554689	-761.7490234375001	-683.5918579101564	458.027313232422	-802.9907226562502	-637.2232055664064	240.3698883056641	-761.8527832031251	-641.2417602539064	236.4171295166016	-799.3203125000002	-675.2156372070314	263.2637023925782	-851.5725708007815	-350.0371704101563	797.2053833007815	-553.6461791992189	-315.2224121093751	741.1581420898439	-556.8409423828126	-281.6840209960938	742.3979492187501	-557.4133911132814	-341.1299133300782	666.3015747070314	-582.3416748046876	-325.6783142089844	515.4825439453126	-608.2868652343751	-314.7760009765626	513.0520629882814	-738.7695312500001	-285.0292358398438	358.2140808105469	-707.7769165039064	-313.8451232910157	271.8604125976563	-648.3702392578126	-287.9645080566407	273.0682983398438	-689.5874633789064	-307.0403137207032	231.8796691894532	-726.5864868164064	-361.2982788085938	99.06150054931643	-686.8452758789064	-354.7005310058594	128.7823028564453	-770.441101074219	-431.090789794922	81.68682861328126	-743.9271240234376	-206.6582489013672	55.40591049194337	-760.0141601562501	-206.2444458007813	50.8911819458008	-719.6223144531251	-248.6433105468751	34.17092895507813	-670.1347656250001	nan	nan	nan	nan	nan	nan	
3	0.01	-166.1248779296875	1681.923217773438	-758.6974487304689	-300.5830078125001	1652.97265625	-782.8597412109377	-323.2929992675782	1634.208740234375	-649.3135986328126	-357.3890380859376	1532.42138671875	-711.8896484375001	-414.0416564941407	1199.083984375	-727.7792968750001	-235.0186614990235	1446.942138671875	-716.1658325195314	-271.2359924316407	1499.3896484375	-856.3301391601565	-189.6955718994141	1426.087646484375	-950.3718261718752	-149.1027526855469	1447.342407226563	-928.876159667969	-126.5664367675782	1401.020629882813	-961.9127197265627	-21.81743431091309	1379.151977539063	-965.6123657226565	-24.83538818359376	1322.055908203125	-924.0090332031252	233.0730438232422	1411.75732421875	-844.6640625000002	239.607162475586	1409.775634765625	-918.9367675781252	315.8648681640626	1421.526977539063	-834.6821289062502	-248.0960083007813	1483.969116210938	-570.0661010742189	-156.8167877197266	1375.250732421875	-476.0552673339845	-117.2337341308594	1398.5283203125	-489.9533081054689	-93.80004119873048	1346.946655273438	-470.5659790039064	-2.074805974960328	1329.995361328125	-470.697967529297	-5.1518292427063	1279.461181640625	-537.2195434570314	256.1488037109376	1383.930908203125	-516.8627319335939	336.5144958496094	1406.725219726563	-594.3129882812501	-261.7332153320313	1028.266723632813	-860.650573730469	-252.0955352783204	1025.646606445313	-610.9398193359376	-437.1508178710939	1097.978881835938	-729.2265014648439	-449.6261291503907	1069.530639648438	-757.4830932617189	-453.9970092773439	1067.960083007813	-701.0653076171876	-256.8731689453126	704.5510253906251	-904.1712646484377	-211.3877868652344	634.7615966796876	-885.2685546875002	-171.6760864257813	644.6074218750001	-857.785339355469	-234.6395721435547	579.6275634765626	-876.444030761719	-242.144760131836	533.9900512695314	-874.8348388671877	-386.1128540039064	413.6935424804689	-824.9495239257815	-444.9313964843751	453.4926757812501	-875.4617919921877	-437.2852172851564	415.1191406250001	-856.362487792969	-509.9208068847657	388.2255859375001	-820.929626464844	-641.9838867187501	406.7296447753907	-846.353454589844	-612.8014526367189	404.1847534179689	-761.8476562500001	-683.6932373046876	458.1119995117189	-803.0697021484377	-637.6289062500001	240.4083404541016	-761.8513793945314	-641.2401733398439	236.3998260498047	-799.539489746094	-674.8972778320314	263.9746704101563	-850.749694824219	-350.0955505371094	797.2483520507815	-553.6824951171876	-315.2423706054688	741.1902465820314	-556.8018188476564	-281.6837463378907	742.4422607421876	-557.4259643554689	-341.1445617675782	666.3270263671876	-582.3227539062501	-325.7176818847657	515.4974365234376	-608.2526245117189	-314.6811828613282	513.0699462890626	-738.7183227539064	-285.0664062500001	358.2375183105469	-707.7162475585939	-313.8374633789063	271.8723449707032	-648.3714599609376	-287.9758300781251	273.0796508789063	-689.5396728515626	-307.0884399414063	231.8932495117188	-726.5287475585939	-361.3255004882813	99.06555175781253	-686.8305053710939	-354.7109680175782	128.7812652587891	-770.413513183594	-431.1060180664064	81.71221160888673	-743.9573364257814	-206.6587371826172	55.41961669921876	-760.0058593750001	-206.2485656738282	50.86351013183595	-719.6207885742189	-248.6108703613282	34.17460632324219	-670.1464233398439	nan	nan	nan	nan	nan	nan	
4	0.015	-165.9285736083985	1681.884399414063	-758.6638793945314	-300.4539184570313	1652.950073242188	-782.8527832031252	-323.2246704101563	1634.192260742188	-649.3021850585939	-357.3031616210938	1532.44921875	-711.8913574218751	-413.9982299804689	1199.093872070313	-727.9368896484376	-234.9932250976563	1446.954223632813	-716.1462402343751	-271.1361999511719	1499.377563476563	-856.3115234375002	-189.6357879638672	1426.114379882813	-950.4243774414065	-148.9976501464844	1447.3408203125	-928.8300781250002	-126.5585021972657	1400.992309570313	-961.9068603515627	-21.67713356018067	1379.115966796875	-965.6616210937502	-24.77743721008301	1321.95654296875	-924.0548095703127	233.1429138183594	1411.637329101563	-844.634948730469	239.6962432861329	1409.624633789063	-918.9140625000002	315.9444274902344	1421.422485351563	-834.6237792968752	-248.0277862548829	1483.955810546875	-570.0811157226564	-156.7810363769532	1375.198852539063	-476.0639038085939	-117.1519241333008	1398.486450195313	-489.9079895019532	-93.73593902587892	1346.869506835938	-470.5615234375001	-2.010522842407227	1329.918579101563	-470.6924133300782	-5.087631225585938	1279.426879882813	-537.2161865234376	256.1900939941407	1383.852172851563	-516.8415527343751	336.5851135253907	1406.623046875	-594.2578125000001	-261.7542114257813	1028.234985351563	-860.6955566406252	-252.0855865478516	1025.617065429688	-611.0036010742189	-437.1350097656251	1098.021850585938	-729.2780151367189	-449.6554260253907	1069.543212890625	-757.5281982421876	-453.8912963867189	1067.952026367188	-701.1369018554689	-256.9457397460938	704.5524291992189	-904.226989746094	-211.4313049316407	634.7163696289064	-885.3054809570315	-171.7615661621094	644.5238647460939	-857.812683105469	-234.7735748291016	579.6007080078126	-876.4854125976565	-242.2151489257813	533.9919433593751	-874.837829589844	-386.2543029785157	413.6848449707032	-825.037536621094	-444.9747314453126	453.5211791992189	-875.5374145507815	-437.8869628906251	415.1807556152345	-856.722351074219	-510.061981201172	388.2734375000001	-821.0433349609377	-641.9854736328126	406.7561340332032	-846.4538574218752	-612.9235839843751	404.2407836914064	-761.8992919921876	-683.8043823242189	458.1831970214845	-803.1857910156252	-638.9008789062501	240.4214477539063	-761.0358886718751	-641.3350219726564	236.5538024902344	-799.7501220703127	-675.0936279296876	264.0549316406251	-850.8723144531252	-350.1151123046876	797.2766113281252	-553.6761474609376	-315.3081359863282	741.2127685546876	-556.7962646484376	-281.7235717773438	742.4817504882814	-557.3923339843751	-341.1815795898438	666.3685913085939	-582.2809448242189	-325.7232971191407	515.5129394531251	-608.2085571289064	-314.6315917968751	513.0510864257814	-738.7116088867189	-285.0731201171876	358.2283020019532	-707.6660156250001	-313.8829040527344	271.8819885253907	-648.3483886718751	-288.0224304199219	273.1012573242188	-689.4974975585939	-307.0481567382813	231.8971099853516	-726.4426879882814	-361.3329467773438	99.06176757812503	-686.8010253906251	-354.6872253417969	128.8247222900391	-770.361755371094	-431.1328430175782	81.71524047851564	-743.9298095703126	-206.6505889892579	55.41046142578126	-759.9874877929689	-206.2412719726563	50.86130905151369	-719.5992431640626	-248.6419677734376	34.1728744506836	-670.1297607421876	nan	nan	nan	nan	nan	nan	
